<svg width="24" height="24" viewBox="0 0 24 24" fill="none" xmlns="http://www.w3.org/2000/svg">
<path d="M10.59 13.41C10.2 13.02 10.2 12.39 10.59 12L12 10.59C12.39 10.2 13.02 10.2 13.41 10.59C13.8 10.98 13.8 11.61 13.41 12L12 13.41C11.61 13.8 10.98 13.8 10.59 13.41Z" fill="black"/>
<path d="M8.46 15.54C6.9 13.98 6.9 11.45 8.46 9.88L11.29 7.05C12.86 5.49 15.39 5.49 16.95 7.05C17.34 7.44 17.34 8.07 16.95 8.46C16.56 8.85 15.93 8.85 15.54 8.46C14.76 7.68 13.49 7.68 12.71 8.46L9.88 11.29C9.1 12.07 9.1 13.34 9.88 14.12C10.27 14.51 10.27 15.15 9.88 15.54C9.49 15.93 8.86 15.93 8.46 15.54Z" fill="black"/>
<path d="M7.05 16.95C5.49 15.39 5.49 12.86 7.05 11.29C7.44 10.9 8.07 10.9 8.46 11.29C8.85 11.68 8.85 12.31 8.46 12.71C7.68 13.49 7.68 14.76 8.46 15.54C9.24 16.32 10.51 16.32 11.29 15.54L14.12 12.71C14.9 11.93 14.9 10.66 14.12 9.88C13.73 9.49 13.73 8.85 14.12 8.46C14.51 8.07 15.15 8.07 15.54 8.46C17.1 10.02 17.1 12.55 15.54 14.12L12.71 16.95C11.14 18.51 8.61 18.51 7.05 16.95Z" fill="black"/>
</svg>
